<svg xmlns="http://www.w3.org/2000/svg" viewBox="0 0 77.13 77.13"><defs><style>.cls-1{fill:#000406;}.cls-2,.cls-3{fill:#fff;}.cls-2{fill-rule:evenodd;}.cls-4{fill:#dd2b1c;}.cls-5{fill:#151616;}</style></defs><title>proplan-logo</title><g id="Слой_2" data-name="Слой 2"><g id="Слой_1-2" data-name="Слой 1"><rect class="cls-1" x="0.52" y="0.52" width="76.09" height="76.09"/><path class="cls-2" d="M1,1H76.09V76.09H1ZM0,77.13H77.13V0H0Z"/><path class="cls-2" d="M15.47,38.62l-2.35,0c-.64,0-1.11,0-1.61,0v.28h.26c.65,0,.94.16.94.78v4.68c0,.62-.29.78-.94.78h-.26v.28c.5,0,1,0,1.61,0s1.24,0,1.87,0v-.28h-.42c-.57,0-.82-.11-.82-1V42.2c.45,0,.88.06,1.32.06,2.65,0,3.42-1,3.42-1.83s-.72-1.81-3-1.81m-.24,3.28a4.77,4.77,0,0,1-1.48-.23V38.94c.25,0,.56,0,.91,0,1.54,0,2.45.59,2.45,1.71C17.11,41.18,16.66,41.9,15.23,41.9ZM56,44.4l-3.06-4.87H52.7l-1.57,2.75a2,2,0,0,0-.35,0,1.84,1.84,0,0,0-1.78,1l0,0a1.73,1.73,0,0,1,.88-.55,1.69,1.69,0,0,1,.92,0L50,44.31c-.36.67-.63.86-1.28.86h-.14v.24c.28,0,2.22,0,2.64,0l.12-.24s-.88,0-.88-.25a1.58,1.58,0,0,1,.21-.57l.63-1.26,0-.1.11,0a3.51,3.51,0,0,0,1.21.35A2.44,2.44,0,0,0,54,43l0,.05.87,1.43a1,1,0,0,1,.16.4c0,.17-.22.25-.6.25h-.3v.24c.44,0,1,0,1.64,0s1.17,0,1.62,0v-.24h-.25A1.4,1.4,0,0,1,56,44.4ZM53.81,43a3.16,3.16,0,0,1-1.76-.44,2.94,2.94,0,0,0-.43-.17l.9-1.78,1.34,2.18L54,43Zm10.52-3.23H63.05V40h.14c.65,0,.82.19.85,1.11l.07,3.26h0l-4.54-4.6h-2V40h.34c.59,0,.85.12.85.69,0,.93,0,2.44-.07,3.49,0,.83-.14,1-.77,1h-.19v.24l1.31,0,1.31,0v-.24H60.1c-.56,0-.76-.18-.78-.83,0-1.23-.07-2.46-.07-3.69h0l4.84,4.84h.35l.22-4.64c0-.77.38-.86.75-.86h.19v-.23ZM48.41,44.23s-.42.79-.64.86-1.88,0-1.88,0c-1.14,0-1.3-.22-1.3-.76v-3.7c0-.51.24-.65.79-.65h.28v-.23H42.55V40h.21c.55,0,.79.14.79.65v3.88c0,.52-.24.65-.79.65h-.21v.23c.42,0,5.1,0,5.47,0l.55-1.14ZM23.5,42.7c.6-.12,1.69-.44,1.69-1.48,0-.36-.38-1.46-2.49-1.46H19.29V40h.21c.56,0,.79.14.79.65v3.88c0,.52-.23.65-.79.65h-.21v.24l1.52,0,1.55,0v-.24H22c-.48,0-.68-.08-.68-.84V42.82c.91,0,1.07,0,1.34.33l1.39,1.52.23.23a2.52,2.52,0,0,0,2.15.62v-.11C25.65,45.41,23.5,42.7,23.5,42.7Zm-1.35-.18a3.85,3.85,0,0,1-.81-.05V40.09c.23,0,.46,0,.75,0,1.65,0,2,1,2,1.31C24.1,42.2,23.22,42.52,22.15,42.52Zm7.23-2.91a3.12,3.12,0,0,0-3.26,3,3,3,0,0,0,3.23,2.88,3.08,3.08,0,0,0,3.26-2.94A3.11,3.11,0,0,0,29.38,39.61Zm0,5.52A2.54,2.54,0,0,1,27,42.48,2.2,2.2,0,0,1,29.35,40a2.49,2.49,0,0,1,2.34,2.64A2.19,2.19,0,0,1,29.4,45.13Zm9.41-6.51-2.34,0c-.65,0-1.12,0-1.62,0v.28h.26c.66,0,1,.16,1,.78v4.68c0,.62-.29.78-1,.78h-.26v.28c.5,0,1,0,1.62,0s1.23,0,1.86,0v-.28h-.41c-.58,0-.82-.11-.82-1V42.2c.44,0,.87.06,1.32.06,2.64,0,3.41-1,3.41-1.83S41.12,38.62,38.81,38.62Zm-.23,3.28a4.69,4.69,0,0,1-1.48-.23V38.94c.24,0,.56,0,.9,0,1.54,0,2.46.59,2.46,1.71C40.46,41.18,40,41.9,38.58,41.9Z"/><rect class="cls-3" x="23.22" y="31.57" width="32.01" height="5.78"/><rect class="cls-3" x="23.42" y="31.77" width="5.59" height="5.4"/><rect class="cls-4" x="23.42" y="31.77" width="5.39" height="5.4"/><rect class="cls-5" x="29" y="31.77" width="26.03" height="5.4"/><path class="cls-2" d="M32.15,32.77a2.47,2.47,0,0,0-.75-.1H30.07v.2h.18a.31.31,0,0,1,.26.1s.06.1.06.37v2.27c0,.25,0,.33-.05.35a.29.29,0,0,1-.27.12h-.18v.2h1.59v-.2h-.18a.32.32,0,0,1-.25-.09s-.06-.11-.06-.38v-1l.25.05.28,0a1.15,1.15,0,0,0,.83-.29,1,1,0,0,0,.29-.73.9.9,0,0,0-.19-.58,1.11,1.11,0,0,0-.48-.35m-1,.25a1.1,1.1,0,0,1,.28,0,.74.74,0,0,1,.36.09.56.56,0,0,1,.23.27.93.93,0,0,1,.09.4.72.72,0,0,1-.18.51.54.54,0,0,1-.42.19h-.17l-.19,0Z"/><path class="cls-2" d="M36.06,32.65v.2h.18a.3.3,0,0,1,.26.1s.06.1.06.37v1.42a2.31,2.31,0,0,1-.09.77.83.83,0,0,1-.36.36,1.25,1.25,0,0,1-.59.14.94.94,0,0,1-.43-.09.84.84,0,0,1-.27-.22,1,1,0,0,1-.12-.39,2.79,2.79,0,0,1,0-.47V33.32a.64.64,0,0,1,.06-.36.27.27,0,0,1,.26-.11h.18v-.2h-1.6v.2h.18a.34.34,0,0,1,.25.08.69.69,0,0,1,.07.39v1.37a2.86,2.86,0,0,0,.09.88,1.1,1.1,0,0,0,.44.56,1.58,1.58,0,0,0,.89.21,1.6,1.6,0,0,0,.87-.22,1.1,1.1,0,0,0,.43-.53,2.56,2.56,0,0,0,.1-.83V33.35c0-.24,0-.33,0-.35a.29.29,0,0,1,.27-.15h.18v-.2"/><path class="cls-2" d="M41.36,36A1.88,1.88,0,0,1,41,35.5l-.68-1a1.16,1.16,0,0,0,.61-.33.91.91,0,0,0,0-1.15,1,1,0,0,0-.48-.31,2.87,2.87,0,0,0-.84-.09H38.27v.2h.18a.31.31,0,0,1,.26.1s.06.1.06.37v2.27c0,.25,0,.32-.05.35a.29.29,0,0,1-.27.12h-.18v.2h1.59v-.2h-.18a.3.3,0,0,1-.25-.09s-.06-.11-.06-.38v-1h.28l1.19,1.64h1v-.19h0a1.09,1.09,0,0,1-.45-.13m-2-2.94a2.88,2.88,0,0,1,.35,0,.7.7,0,0,1,.5.19.66.66,0,0,1,.19.5.63.63,0,0,1-.24.51,1,1,0,0,1-.71.21h-.09Z"/><path class="cls-2" d="M42.76,32.68v.19h.17a.49.49,0,0,1,.22.06l.08.08a1.17,1.17,0,0,1,0,.33v2.27a.68.68,0,0,1-.06.37.31.31,0,0,1-.27.11h-.17v.19h1.59v-.19h-.17A.42.42,0,0,1,44,36l-.09-.09a1.46,1.46,0,0,1,0-.33V33.34c0-.26,0-.34,0-.36a.32.32,0,0,1,.27-.11h.17v-.19"/><path class="cls-2" d="M49.47,32.67H48.15v.2h.17a.35.35,0,0,1,.27.09.68.68,0,0,1,.06.37v1.88l-2.09-2.54h-1v.2h.05l.21,0A.65.65,0,0,1,46,33a2.45,2.45,0,0,1,.21.22v2.41a.7.7,0,0,1,0,.35.31.31,0,0,1-.28.11h-.17v.2h1.32v-.2h-.18a.33.33,0,0,1-.26-.09s-.06-.11-.06-.37v-2l2.26,2.74H49v-3A.7.7,0,0,1,49,33a.32.32,0,0,1,.28-.11h.17"/><path class="cls-2" d="M53.9,36.08a.45.45,0,0,1-.3-.1,1.31,1.31,0,0,1-.26-.44l-1.2-2.95H52L50.7,35.5a1.61,1.61,0,0,1-.28.5.55.55,0,0,1-.26.08h0v.19h1.2v-.19h0A.66.66,0,0,1,51,36l-.06-.11a.86.86,0,0,1,.09-.28l.23-.52h1.29l.2.47a1.13,1.13,0,0,1,.09.34l-.05.1a.36.36,0,0,1-.25.06h0v.19H54v-.19m-2.06-2.51.51,1.23h-1Z"/><rect class="cls-3" x="23.61" y="31.96" width="5.01" height="5.01"/><rect class="cls-4" x="23.8" y="35.24" width="1.54" height="1.54"/><rect class="cls-4" x="26.89" y="35.24" width="1.54" height="1.54"/><rect class="cls-4" x="25.34" y="33.7" width="1.54" height="1.54"/><rect class="cls-4" x="23.8" y="32.15" width="1.54" height="1.54"/><rect class="cls-4" x="26.89" y="32.15" width="1.54" height="1.54"/><path class="cls-2" d="M56.05,32.54a.37.37,0,0,1-.37-.39.37.37,0,1,1,.73,0,.37.37,0,0,1-.36.39m0,.1a.49.49,0,1,0-.49-.49A.49.49,0,0,0,56.05,32.64Zm-.19-.21H56v-.24H56l.15.24h.1l-.15-.24q.15,0,.15-.15c0-.12-.07-.16-.21-.16h-.2ZM56,32h.1l.1.08c0,.07,0,.08-.11.08H56Z"/><path class="cls-2" d="M66.45,40.64a.39.39,0,1,1,.37-.39.37.37,0,0,1-.37.39m0,.1a.49.49,0,0,0,.49-.49.49.49,0,0,0-1,0A.49.49,0,0,0,66.45,40.74Zm-.18-.22h.1v-.23h.06l.14.23h.11l-.15-.24c.09,0,.15-.05.15-.15s-.07-.16-.21-.16h-.2Zm.1-.47h.09l.11.08c0,.07,0,.08-.11.08h-.09Z"/></g></g></svg>